<svg xmlns="http://www.w3.org/2000/svg" viewBox="0 0 64 64" width="64" height="64">
  <defs>
    <linearGradient id="fg" x1="0%" y1="100%" x2="0%" y2="0%">
      <stop offset="0%" stop-color="#B45309"/>
      <stop offset="50%" stop-color="#D97706"/>
      <stop offset="100%" stop-color="#F59E0B"/>
    </linearGradient>
    <linearGradient id="ag" x1="0%" y1="0%" x2="0%" y2="100%">
      <stop offset="0%" stop-color="#475569"/>
      <stop offset="100%" stop-color="#1E293B"/>
    </linearGradient>
  </defs>
  <!-- Dark background -->
  <rect width="64" height="64" rx="12" fill="#0F172A"/>
  <!-- Anvil simplified -->
  <rect x="16" y="44" width="32" height="6" rx="2" fill="url(#ag)"/>
  <path d="M 22 44 L 24 36 L 40 36 L 42 44 Z" fill="url(#ag)"/>
  <rect x="14" y="30" width="36" height="8" rx="3" fill="url(#ag)"/>
  <!-- Horn -->
  <path d="M 14 32 L 8 35 Q 6 36 8 38 L 14 38 Z" fill="url(#ag)"/>
  <!-- Sparks -->
  <circle cx="24" cy="26" r="1.5" fill="#FBBF24" opacity="0.9"/>
  <circle cx="32" cy="22" r="1.5" fill="#FBBF24" opacity="0.8"/>
  <circle cx="40" cy="25" r="1.5" fill="#FBBF24" opacity="0.9"/>
  <circle cx="28" cy="19" r="1" fill="#FBBF24" opacity="0.5"/>
  <circle cx="36" cy="17" r="1" fill="#FBBF24" opacity="0.4"/>
  <!-- Flame -->
  <path d="M 30 30 Q 28 24 30 18 Q 32 14 34 20 Q 36 26 34 30 Z" fill="url(#fg)" opacity="0.7"/>
</svg>